<svg width="162" height="163" viewBox="0 0 162 163" fill="none" xmlns="http://www.w3.org/2000/svg">
<path d="M71.5627 161.065L161.009 133.61L161.009 30.6511L90.8677 52.181L71.5627 58.1067L71.5627 112.2L71.5627 161.065Z" fill="white"/>
<path d="M71.5627 58.1067L36.64 43.6878L1.71721 29.269L1.00913 132.51L71.5627 112.2L71.5627 58.1067Z" fill="white"/>
<path d="M161.009 30.6511L71.5627 58.1067L90.8677 52.181L161.009 30.6511Z" fill="white"/>
<path d="M90.8677 52.181L161.009 30.6511L94.8933 1.06526L1.71721 29.269L36.64 43.6878L71.5627 58.1067L90.8677 52.181Z" fill="white"/>
<path d="M71.5627 58.1067L161.009 30.6511M71.5627 58.1067L90.8677 52.181L161.009 30.6511M71.5627 58.1067L71.5627 112.2M71.5627 58.1067L36.64 43.6878L1.71721 29.269M161.009 30.6511L161.009 133.61L71.5627 161.065L71.5627 112.2M161.009 30.6511L94.8933 1.06526L1.71721 29.269M1.71721 29.269L1.00913 132.51L71.5627 112.2" stroke="#1976D2" stroke-width="2"/>
<path d="M43.7167 79.5803L114.115 92.3799" stroke="#1976D2" stroke-linecap="round"/>
<ellipse cx="114.117" cy="92.3799" rx="9.6" ry="9.6" fill="#1976D2"/>
<ellipse cx="43.7171" cy="79.58" rx="9.6" ry="9.6" fill="#1976D2"/>
</svg>
