<svg width="30" height="29" viewBox="0 0 30 29" fill="none" xmlns="http://www.w3.org/2000/svg">
<mask id="path-1-outside-1_75_7" maskUnits="userSpaceOnUse" x="9" y="3" width="21" height="24" fill="black">
<rect fill="white" x="9" y="3" width="21" height="24"/>
<path d="M9.89631 26V4.18182H14.5092V13.8018H14.7969L22.6484 4.18182H28.1776L20.081 13.951L28.2734 26H22.755L16.7784 17.0298L14.5092 19.7997V26H9.89631Z"/>
</mask>
<path d="M9.89631 26V4.18182H14.5092V13.8018H14.7969L22.6484 4.18182H28.1776L20.081 13.951L28.2734 26H22.755L16.7784 17.0298L14.5092 19.7997V26H9.89631Z" fill="#25394D"/>
<path d="M9.89631 26H9.39631V26.5H9.89631V26ZM9.89631 4.18182V3.68182H9.39631V4.18182H9.89631ZM14.5092 4.18182H15.0092V3.68182H14.5092V4.18182ZM14.5092 13.8018H14.0092V14.3018H14.5092V13.8018ZM14.7969 13.8018V14.3018H15.0342L15.1842 14.118L14.7969 13.8018ZM22.6484 4.18182V3.68182H22.4111L22.2611 3.86567L22.6484 4.18182ZM28.1776 4.18182L28.5625 4.50088L29.2414 3.68182H28.1776V4.18182ZM20.081 13.951L19.696 13.6319L19.4562 13.9213L19.6675 14.2321L20.081 13.951ZM28.2734 26V26.5H29.218L28.6869 25.7189L28.2734 26ZM22.755 26L22.3389 26.2772L22.4873 26.5H22.755V26ZM16.7784 17.0298L17.1945 16.7526L16.8198 16.1903L16.3916 16.713L16.7784 17.0298ZM14.5092 19.7997L14.1225 19.4829L14.0092 19.6211V19.7997H14.5092ZM14.5092 26V26.5H15.0092V26H14.5092ZM9.89631 26H10.3963V4.18182H9.89631H9.39631V26H9.89631ZM9.89631 4.18182V4.68182H14.5092V4.18182V3.68182H9.89631V4.18182ZM14.5092 4.18182H14.0092V13.8018H14.5092H15.0092V4.18182H14.5092ZM14.5092 13.8018V14.3018H14.7969V13.8018V13.3018H14.5092V13.8018ZM14.7969 13.8018L15.1842 14.118L23.0358 4.49797L22.6484 4.18182L22.2611 3.86567L14.4095 13.4857L14.7969 13.8018ZM22.6484 4.18182V4.68182H28.1776V4.18182V3.68182H22.6484V4.18182ZM28.1776 4.18182L27.7926 3.86276L19.696 13.6319L20.081 13.951L20.4659 14.2701L28.5625 4.50088L28.1776 4.18182ZM20.081 13.951L19.6675 14.2321L27.86 26.2811L28.2734 26L28.6869 25.7189L20.4944 13.6699L20.081 13.951ZM28.2734 26V25.5H22.755V26V26.5H28.2734V26ZM22.755 26L23.1711 25.7228L17.1945 16.7526L16.7784 17.0298L16.3623 17.3071L22.3389 26.2772L22.755 26ZM16.7784 17.0298L16.3916 16.713L14.1225 19.4829L14.5092 19.7997L14.896 20.1166L17.1652 17.3467L16.7784 17.0298ZM14.5092 19.7997H14.0092V26H14.5092H15.0092V19.7997H14.5092ZM14.5092 26V25.5H9.89631V26V26.5H14.5092V26Z" fill="white" fill-opacity="0.3" mask="url(#path-1-outside-1_75_7)"/>
<path d="M6.22159 4.18182L10.6214 11.6179H10.7919L15.2131 4.18182H20.4226L13.7642 15.0909L20.5717 26H15.2663L10.7919 18.5533H10.6214L6.14702 26H0.862926L7.69176 15.0909L0.990767 4.18182H6.22159Z" fill="#1976D2"/>
</svg>
