<svg width="13" height="14" viewBox="0 0 13 14" fill="none" xmlns="http://www.w3.org/2000/svg">
<path d="M5.79615 12.5326L12.5046 10.4735L12.5046 2.75159L7.24403 4.36634L5.79615 4.81076L5.79615 8.86779L5.79615 12.5326Z" fill="white"/>
<path d="M5.79615 4.81076L0.557743 2.64794L0.504637 10.391L5.79615 8.86779L5.79615 4.81076Z" fill="white"/>
<path d="M12.5046 2.75159L5.79615 4.81076L7.24403 4.36634L12.5046 2.75159Z" fill="white"/>
<path d="M7.24403 4.36634L12.5046 2.75159L7.54595 0.532655L0.557743 2.64794L5.79615 4.81076L7.24403 4.36634Z" fill="white"/>
<path d="M5.79615 4.81076L12.5046 2.75159M5.79615 4.81076L0.557743 2.64794M5.79615 4.81076L7.24403 4.36634L12.5046 2.75159M5.79615 4.81076L5.79615 8.86779M12.5046 2.75159L12.5046 10.4735L5.79615 12.5326L5.79615 8.86779M12.5046 2.75159L7.54595 0.532655L0.557743 2.64794M0.557743 2.64794L0.504637 10.391L5.79615 8.86779" stroke="#1976D2"/>
<path d="M3.70764 6.42128L8.98754 7.38125" stroke="#1976D2" stroke-linecap="round"/>
<circle cx="8.9877" cy="7.38125" r="0.72" fill="#1976D2"/>
<circle cx="3.70767" cy="6.42126" r="0.72" fill="#1976D2"/>
</svg>
