<svg width="108" height="25" viewBox="0 0 108 25" fill="none" xmlns="http://www.w3.org/2000/svg">
<path d="M6.22159 2.18182L10.6214 9.6179H10.7919L15.2131 2.18182H20.4226L13.7642 13.0909L20.5717 24H15.2663L10.7919 16.5533H10.6214L6.14702 24H0.862926L7.69176 13.0909L0.990767 2.18182H6.22159ZM31.8111 11.2905V14.8913H21.8608V11.2905H31.8111Z" fill="#1976D2"/>
<path d="M35.7635 24V2.18182H40.3764V11.8018H40.6641L48.5156 2.18182H54.0447L45.9482 11.951L54.1406 24H48.6222L42.6456 15.0298L40.3764 17.7997V24H35.7635ZM62.5542 24.3196C60.8993 24.3196 59.4682 23.968 58.2608 23.2649C57.0605 22.5547 56.1337 21.5675 55.4803 20.3033C54.8269 19.032 54.5002 17.5582 54.5002 15.8821C54.5002 14.1918 54.8269 12.7145 55.4803 11.4503C56.1337 10.179 57.0605 9.19176 58.2608 8.48864C59.4682 7.77841 60.8993 7.4233 62.5542 7.4233C64.209 7.4233 65.6365 7.77841 66.8368 8.48864C68.0442 9.19176 68.9746 10.179 69.628 11.4503C70.2814 12.7145 70.6081 14.1918 70.6081 15.8821C70.6081 17.5582 70.2814 19.032 69.628 20.3033C68.9746 21.5675 68.0442 22.5547 66.8368 23.2649C65.6365 23.968 64.209 24.3196 62.5542 24.3196ZM62.5755 20.804C63.3283 20.804 63.9569 20.5909 64.4611 20.1648C64.9654 19.7315 65.3453 19.142 65.601 18.3963C65.8638 17.6506 65.9952 16.8018 65.9952 15.8501C65.9952 14.8984 65.8638 14.0497 65.601 13.304C65.3453 12.5582 64.9654 11.9687 64.4611 11.5355C63.9569 11.1023 63.3283 10.8857 62.5755 10.8857C61.8155 10.8857 61.1763 11.1023 60.6578 11.5355C60.1465 11.9687 59.7594 12.5582 59.4966 13.304C59.2409 14.0497 59.1131 14.8984 59.1131 15.8501C59.1131 16.8018 59.2409 17.6506 59.4966 18.3963C59.7594 19.142 60.1465 19.7315 60.6578 20.1648C61.1763 20.5909 61.8155 20.804 62.5755 20.804ZM82.263 7.63636V11.0455H72.4086V7.63636H82.263ZM74.6458 3.71591H79.1841V18.9716C79.1841 19.3906 79.248 19.7173 79.3759 19.9517C79.5037 20.179 79.6813 20.3388 79.9086 20.4311C80.1429 20.5234 80.4128 20.5696 80.7182 20.5696C80.9313 20.5696 81.1444 20.5518 81.3574 20.5163C81.5705 20.4737 81.7338 20.4418 81.8475 20.4205L82.5613 23.7976C82.334 23.8686 82.0144 23.9503 81.6025 24.0426C81.1905 24.142 80.6898 24.2024 80.1003 24.2237C79.0066 24.2663 78.0478 24.1207 77.2239 23.7869C76.4071 23.4531 75.7715 22.9347 75.3169 22.2315C74.8624 21.5284 74.6387 20.6406 74.6458 19.5682V3.71591ZM92.5009 24.3196C90.8176 24.3196 89.3688 23.9787 88.1543 23.2969C86.9469 22.608 86.0165 21.6349 85.3631 20.3778C84.7097 19.1136 84.383 17.6186 84.383 15.8928C84.383 14.2095 84.7097 12.7322 85.3631 11.4609C86.0165 10.1896 86.9363 9.19886 88.1223 8.48864C89.3155 7.77841 90.7147 7.4233 92.3198 7.4233C93.3993 7.4233 94.4043 7.5973 95.3347 7.94531C96.2722 8.28622 97.089 8.80114 97.785 9.49006C98.4881 10.179 99.035 11.0455 99.4256 12.0895C99.8162 13.1264 100.012 14.3409 100.012 15.733V16.9794H86.1941V14.1669H95.7395C95.7395 13.5135 95.5975 12.9347 95.3134 12.4304C95.0293 11.9261 94.6351 11.532 94.1309 11.2479C93.6337 10.9567 93.0549 10.8111 92.3944 10.8111C91.7054 10.8111 91.0946 10.9709 90.562 11.2905C90.0364 11.603 89.6245 12.0256 89.3262 12.5582C89.0279 13.0838 88.8752 13.6697 88.8681 14.3161V16.9901C88.8681 17.7997 89.0172 18.4993 89.3155 19.0888C89.6209 19.6783 90.0506 20.1328 90.6046 20.4524C91.1586 20.772 91.8155 20.9318 92.5755 20.9318C93.0797 20.9318 93.5414 20.8608 93.9604 20.7188C94.3794 20.5767 94.7381 20.3636 95.0364 20.0795C95.3347 19.7955 95.562 19.4474 95.7182 19.0355L99.9157 19.3125C99.7026 20.321 99.2658 21.2017 98.6053 21.9545C97.9519 22.7003 97.1067 23.2827 96.0698 23.7017C95.04 24.1136 93.8503 24.3196 92.5009 24.3196ZM102.973 24V7.63636H107.512V24H102.973ZM105.253 5.52699C104.578 5.52699 103.999 5.30327 103.517 4.85582C103.041 4.40128 102.803 3.85795 102.803 3.22585C102.803 2.60085 103.041 2.06463 103.517 1.61719C103.999 1.16264 104.578 0.935368 105.253 0.935368C105.928 0.935368 106.503 1.16264 106.979 1.61719C107.462 2.06463 107.703 2.60085 107.703 3.22585C107.703 3.85795 107.462 4.40128 106.979 4.85582C106.503 5.30327 105.928 5.52699 105.253 5.52699Z" fill="#25394D"/>
</svg>
